<svg xmlns="http://www.w3.org/2000/svg" xmlns:xlink="http://www.w3.org/1999/xlink" width="500" zoomAndPan="magnify" viewBox="0 0 375 374.999991" height="500" preserveAspectRatio="xMidYMid meet" version="1.0"><defs><g/><clipPath id="4d1ffd2ed9"><path d="M 17.25 0 L 357.75 0 C 362.324219 0 366.710938 1.816406 369.949219 5.050781 C 373.183594 8.289062 375 12.675781 375 17.25 L 375 357.75 C 375 362.324219 373.183594 366.710938 369.949219 369.949219 C 366.710938 373.183594 362.324219 375 357.75 375 L 17.25 375 C 12.675781 375 8.289062 373.183594 5.050781 369.949219 C 1.816406 366.710938 0 362.324219 0 357.75 L 0 17.25 C 0 7.722656 7.722656 0 17.25 0 Z M 17.25 0 " clip-rule="nonzero"/></clipPath><clipPath id="bf27790415"><path d="M 20.339844 20.339844 L 354.660156 20.339844 L 354.660156 354.660156 L 20.339844 354.660156 Z M 20.339844 20.339844 " clip-rule="nonzero"/></clipPath><clipPath id="40e4b8c06b"><path d="M 25.589844 20.339844 L 349.410156 20.339844 C 350.800781 20.339844 352.136719 20.894531 353.121094 21.878906 C 354.105469 22.863281 354.660156 24.199219 354.660156 25.589844 L 354.660156 349.410156 C 354.660156 350.800781 354.105469 352.136719 353.121094 353.121094 C 352.136719 354.105469 350.800781 354.660156 349.410156 354.660156 L 25.589844 354.660156 C 24.199219 354.660156 22.863281 354.105469 21.878906 353.121094 C 20.894531 352.136719 20.339844 350.800781 20.339844 349.410156 L 20.339844 25.589844 C 20.339844 24.199219 20.894531 22.863281 21.878906 21.878906 C 22.863281 20.894531 24.199219 20.339844 25.589844 20.339844 Z M 25.589844 20.339844 " clip-rule="nonzero"/></clipPath><clipPath id="edcfc67451"><path d="M 20.339844 20.339844 L 354.648438 20.339844 L 354.648438 354.648438 L 20.339844 354.648438 Z M 20.339844 20.339844 " clip-rule="nonzero"/></clipPath><clipPath id="4fed49ffd5"><path d="M 25.589844 20.339844 L 349.398438 20.339844 C 350.789062 20.339844 352.125 20.894531 353.109375 21.878906 C 354.09375 22.863281 354.648438 24.199219 354.648438 25.589844 L 354.648438 349.398438 C 354.648438 350.789062 354.09375 352.125 353.109375 353.109375 C 352.125 354.09375 350.789062 354.648438 349.398438 354.648438 L 25.589844 354.648438 C 24.199219 354.648438 22.863281 354.09375 21.878906 353.109375 C 20.894531 352.125 20.339844 350.789062 20.339844 349.398438 L 20.339844 25.589844 C 20.339844 24.199219 20.894531 22.863281 21.878906 21.878906 C 22.863281 20.894531 24.199219 20.339844 25.589844 20.339844 Z M 25.589844 20.339844 " clip-rule="nonzero"/></clipPath><clipPath id="6152ee231b"><path d="M 22.453125 227.160156 L 352.546875 227.160156 L 352.546875 354.660156 L 22.453125 354.660156 Z M 22.453125 227.160156 " clip-rule="nonzero"/></clipPath><clipPath id="a18000489b"><path d="M 29 27 L 192 27 L 192 188 L 29 188 Z M 29 27 " clip-rule="nonzero"/></clipPath><clipPath id="1d1fd5dc34"><path d="M 70.921875 5.519531 L 207.542969 60.277344 L 147.90625 209.082031 L 11.28125 154.328125 Z M 70.921875 5.519531 " clip-rule="nonzero"/></clipPath><clipPath id="c8a0aab6e5"><path d="M 207.734375 60.351562 L 71.109375 5.597656 L 11.472656 154.402344 L 148.09375 209.160156 Z M 207.734375 60.351562 " clip-rule="nonzero"/></clipPath><clipPath id="fe14d95404"><path d="M 207.734375 60.351562 L 70.867188 5.5 L 11.355469 153.996094 L 148.21875 208.847656 Z M 207.734375 60.351562 " clip-rule="nonzero"/></clipPath><clipPath id="b3f65f55bd"><path d="M 207.734375 60.351562 L 70.917969 5.519531 L 11.402344 154.015625 L 148.21875 208.847656 Z M 207.734375 60.351562 " clip-rule="nonzero"/></clipPath><clipPath id="35ff5cdb01"><path d="M 44 162 L 115 162 L 115 196 L 44 196 Z M 44 162 " clip-rule="nonzero"/></clipPath><clipPath id="0f480dbe04"><path d="M 70.921875 5.519531 L 207.542969 60.277344 L 147.90625 209.082031 L 11.28125 154.328125 Z M 70.921875 5.519531 " clip-rule="nonzero"/></clipPath><clipPath id="134b4ab15a"><path d="M 207.734375 60.351562 L 71.109375 5.597656 L 11.472656 154.402344 L 148.09375 209.160156 Z M 207.734375 60.351562 " clip-rule="nonzero"/></clipPath><clipPath id="60bc04b5d2"><path d="M 121.453125 179.285156 L 51.128906 151.097656 L 44.515625 167.597656 L 114.839844 195.785156 Z M 121.453125 179.285156 " clip-rule="nonzero"/></clipPath><clipPath id="72a2722c30"><path d="M 121.453125 179.285156 L 51.128906 151.097656 L 44.535156 167.550781 L 114.859375 195.738281 Z M 121.453125 179.285156 " clip-rule="nonzero"/></clipPath><clipPath id="43aa1708e2"><path d="M 120.167969 167 L 236.417969 167 L 236.417969 200 L 120.167969 200 Z M 120.167969 167 " clip-rule="nonzero"/></clipPath><clipPath id="28b6e3076e"><path d="M 120.167969 195 L 236.417969 195 L 236.417969 211 L 120.167969 211 Z M 120.167969 195 " clip-rule="nonzero"/></clipPath><clipPath id="c91a4080d6"><path d="M 120.167969 208 L 236.417969 208 L 236.417969 224 L 120.167969 224 Z M 120.167969 208 " clip-rule="nonzero"/></clipPath><clipPath id="c9ad0af8c3"><path d="M 120.167969 221 L 236.417969 221 L 236.417969 237 L 120.167969 237 Z M 120.167969 221 " clip-rule="nonzero"/></clipPath><clipPath id="29f5534b8d"><path d="M 235.128906 167 L 351.378906 167 L 351.378906 200 L 235.128906 200 Z M 235.128906 167 " clip-rule="nonzero"/></clipPath><clipPath id="9996832954"><path d="M 235.128906 195 L 351.378906 195 L 351.378906 211 L 235.128906 211 Z M 235.128906 195 " clip-rule="nonzero"/></clipPath><clipPath id="ae9a0b4084"><path d="M 235.128906 208 L 351.378906 208 L 351.378906 224 L 235.128906 224 Z M 235.128906 208 " clip-rule="nonzero"/></clipPath><clipPath id="184a805b50"><path d="M 235.128906 221 L 351.378906 221 L 351.378906 237 L 235.128906 237 Z M 235.128906 221 " clip-rule="nonzero"/></clipPath><clipPath id="7b890869f5"><path d="M 51 128 L 73.476562 128 L 73.476562 164.363281 L 51 164.363281 Z M 51 128 " clip-rule="nonzero"/></clipPath><clipPath id="0257ce3092"><path d="M 22.457031 163.871094 L 123.921875 163.871094 L 123.921875 270.355469 L 22.457031 270.355469 Z M 22.457031 163.871094 " clip-rule="nonzero"/></clipPath><clipPath id="2b739bd637"><path d="M 120.621094 234.84375 C 122.613281 229.382812 123.921875 223.175781 123.921875 217.085938 C 123.921875 210.992188 122.800781 205.132812 120.808594 199.730469 C 120.746094 199.617188 120.746094 199.5 120.683594 199.386719 C 112.714844 179.101562 91.675781 164.160156 67.957031 163.871094 L 22.457031 163.871094 L 22.457031 270.355469 L 67.921875 270.355469 C 91.800781 270.070312 112.839844 255.355469 120.621094 234.84375 Z M 120.621094 234.84375 " clip-rule="nonzero"/></clipPath><clipPath id="80f1b326ea"><path d="M 240 61 L 305 61 L 305 126 L 240 126 Z M 240 61 " clip-rule="nonzero"/></clipPath><clipPath id="4aebe22a82"><path d="M 214.644531 59.597656 L 306.261719 35.675781 L 330.183594 127.292969 L 238.566406 151.214844 Z M 214.644531 59.597656 " clip-rule="nonzero"/></clipPath><clipPath id="bff1b40787"><path d="M 214.644531 59.597656 L 306.261719 35.675781 L 330.183594 127.292969 L 238.566406 151.214844 Z M 214.644531 59.597656 " clip-rule="nonzero"/></clipPath><clipPath id="43000ed513"><path d="M 256 47 L 270 47 L 270 60 L 256 60 Z M 256 47 " clip-rule="nonzero"/></clipPath><clipPath id="769793897f"><path d="M 214.644531 59.597656 L 306.261719 35.675781 L 330.183594 127.292969 L 238.566406 151.214844 Z M 214.644531 59.597656 " clip-rule="nonzero"/></clipPath><clipPath id="13cd6a6770"><path d="M 214.644531 59.597656 L 306.261719 35.675781 L 330.183594 127.292969 L 238.566406 151.214844 Z M 214.644531 59.597656 " clip-rule="nonzero"/></clipPath><clipPath id="1783b49c25"><path d="M 239 59 L 252 59 L 252 73 L 239 73 Z M 239 59 " clip-rule="nonzero"/></clipPath><clipPath id="0d0178d23e"><path d="M 214.644531 59.597656 L 306.261719 35.675781 L 330.183594 127.292969 L 238.566406 151.214844 Z M 214.644531 59.597656 " clip-rule="nonzero"/></clipPath><clipPath id="72bb1fd842"><path d="M 214.644531 59.597656 L 306.261719 35.675781 L 330.183594 127.292969 L 238.566406 151.214844 Z M 214.644531 59.597656 " clip-rule="nonzero"/></clipPath><clipPath id="3dbae6f4c7"><path d="M 226 77 L 239 77 L 239 90 L 226 90 Z M 226 77 " clip-rule="nonzero"/></clipPath><clipPath id="6ab898c562"><path d="M 214.644531 59.597656 L 306.261719 35.675781 L 330.183594 127.292969 L 238.566406 151.214844 Z M 214.644531 59.597656 " clip-rule="nonzero"/></clipPath><clipPath id="53cb1db7c3"><path d="M 214.644531 59.597656 L 306.261719 35.675781 L 330.183594 127.292969 L 238.566406 151.214844 Z M 214.644531 59.597656 " clip-rule="nonzero"/></clipPath><clipPath id="35b7e65953"><path d="M 226 96 L 239 96 L 239 109 L 226 109 Z M 226 96 " clip-rule="nonzero"/></clipPath><clipPath id="2e3075aa67"><path d="M 214.644531 59.597656 L 306.261719 35.675781 L 330.183594 127.292969 L 238.566406 151.214844 Z M 214.644531 59.597656 " clip-rule="nonzero"/></clipPath><clipPath id="94ed174c01"><path d="M 214.644531 59.597656 L 306.261719 35.675781 L 330.183594 127.292969 L 238.566406 151.214844 Z M 214.644531 59.597656 " clip-rule="nonzero"/></clipPath><clipPath id="92c66fab6c"><path d="M 238 114 L 251 114 L 251 127 L 238 127 Z M 238 114 " clip-rule="nonzero"/></clipPath><clipPath id="70aecfde18"><path d="M 214.644531 59.597656 L 306.261719 35.675781 L 330.183594 127.292969 L 238.566406 151.214844 Z M 214.644531 59.597656 " clip-rule="nonzero"/></clipPath><clipPath id="3b62590347"><path d="M 214.644531 59.597656 L 306.261719 35.675781 L 330.183594 127.292969 L 238.566406 151.214844 Z M 214.644531 59.597656 " clip-rule="nonzero"/></clipPath><clipPath id="87c0b5f0c7"><path d="M 256 126 L 269 126 L 269 139 L 256 139 Z M 256 126 " clip-rule="nonzero"/></clipPath><clipPath id="8634b0ff7c"><path d="M 214.644531 59.597656 L 306.261719 35.675781 L 330.183594 127.292969 L 238.566406 151.214844 Z M 214.644531 59.597656 " clip-rule="nonzero"/></clipPath><clipPath id="9c918eed71"><path d="M 214.644531 59.597656 L 306.261719 35.675781 L 330.183594 127.292969 L 238.566406 151.214844 Z M 214.644531 59.597656 " clip-rule="nonzero"/></clipPath><clipPath id="ffff3fefc8"><path d="M 275 126 L 288 126 L 288 139 L 275 139 Z M 275 126 " clip-rule="nonzero"/></clipPath><clipPath id="f80b427dcd"><path d="M 214.644531 59.597656 L 306.261719 35.675781 L 330.183594 127.292969 L 238.566406 151.214844 Z M 214.644531 59.597656 " clip-rule="nonzero"/></clipPath><clipPath id="3b430c2f8f"><path d="M 214.644531 59.597656 L 306.261719 35.675781 L 330.183594 127.292969 L 238.566406 151.214844 Z M 214.644531 59.597656 " clip-rule="nonzero"/></clipPath><clipPath id="8ca2e1c562"><path d="M 293 114 L 306 114 L 306 127 L 293 127 Z M 293 114 " clip-rule="nonzero"/></clipPath><clipPath id="85a21a23f5"><path d="M 214.644531 59.597656 L 306.261719 35.675781 L 330.183594 127.292969 L 238.566406 151.214844 Z M 214.644531 59.597656 " clip-rule="nonzero"/></clipPath><clipPath id="56542856b6"><path d="M 214.644531 59.597656 L 306.261719 35.675781 L 330.183594 127.292969 L 238.566406 151.214844 Z M 214.644531 59.597656 " clip-rule="nonzero"/></clipPath><clipPath id="0decdb2227"><path d="M 305 96 L 318 96 L 318 109 L 305 109 Z M 305 96 " clip-rule="nonzero"/></clipPath><clipPath id="83f9c67d6a"><path d="M 214.644531 59.597656 L 306.261719 35.675781 L 330.183594 127.292969 L 238.566406 151.214844 Z M 214.644531 59.597656 " clip-rule="nonzero"/></clipPath><clipPath id="ac28486db5"><path d="M 214.644531 59.597656 L 306.261719 35.675781 L 330.183594 127.292969 L 238.566406 151.214844 Z M 214.644531 59.597656 " clip-rule="nonzero"/></clipPath><clipPath id="cf91b6c338"><path d="M 305 78 L 318 78 L 318 91 L 305 91 Z M 305 78 " clip-rule="nonzero"/></clipPath><clipPath id="e96791da7d"><path d="M 214.644531 59.597656 L 306.261719 35.675781 L 330.183594 127.292969 L 238.566406 151.214844 Z M 214.644531 59.597656 " clip-rule="nonzero"/></clipPath><clipPath id="3da1f9abcb"><path d="M 214.644531 59.597656 L 306.261719 35.675781 L 330.183594 127.292969 L 238.566406 151.214844 Z M 214.644531 59.597656 " clip-rule="nonzero"/></clipPath><clipPath id="53eb04eb9e"><path d="M 293 60 L 306 60 L 306 73 L 293 73 Z M 293 60 " clip-rule="nonzero"/></clipPath><clipPath id="e0b29dbd91"><path d="M 214.644531 59.597656 L 306.261719 35.675781 L 330.183594 127.292969 L 238.566406 151.214844 Z M 214.644531 59.597656 " clip-rule="nonzero"/></clipPath><clipPath id="c4d8b777c5"><path d="M 214.644531 59.597656 L 306.261719 35.675781 L 330.183594 127.292969 L 238.566406 151.214844 Z M 214.644531 59.597656 " clip-rule="nonzero"/></clipPath><clipPath id="39214ddc11"><path d="M 275 47 L 288 47 L 288 61 L 275 61 Z M 275 47 " clip-rule="nonzero"/></clipPath><clipPath id="4ecd13607d"><path d="M 214.644531 59.597656 L 306.261719 35.675781 L 330.183594 127.292969 L 238.566406 151.214844 Z M 214.644531 59.597656 " clip-rule="nonzero"/></clipPath><clipPath id="837110dce2"><path d="M 214.644531 59.597656 L 306.261719 35.675781 L 330.183594 127.292969 L 238.566406 151.214844 Z M 214.644531 59.597656 " clip-rule="nonzero"/></clipPath></defs><g clip-path="url(#4d1ffd2ed9)"><rect x="-37.5" width="450" fill="#fffff5" y="-37.499999" height="449.999989" fill-opacity="1"/><path stroke-linecap="butt" transform="matrix(0.9375, 0, 0, 0.9375, 0.0000045, 0)" fill="none" stroke-linejoin="miter" d="M 18.399996 0 L 381.60002 0 C 386.479187 0 391.158354 1.9375 394.612521 5.3875 C 398.062521 8.841667 400.000021 13.520834 400.000021 18.400001 L 400.000021 381.600025 C 400.000021 386.479192 398.062521 391.158359 394.612521 394.612526 C 391.158354 398.062526 386.479187 400.000026 381.60002 400.000026 L 18.399996 400.000026 C 13.520829 400.000026 8.841662 398.062526 5.387496 394.612526 C 1.937495 391.158359 -0.0000048 386.479192 -0.0000048 381.600025 L -0.0000048 18.400001 C -0.0000048 8.237501 8.237496 0 18.399996 0 Z M 18.399996 0 " stroke="#377fb8" stroke-width="22.4" stroke-opacity="1" stroke-miterlimit="4"/></g><g clip-path="url(#bf27790415)"><g clip-path="url(#40e4b8c06b)"><path fill="#fffff5" d="M 20.339844 20.339844 L 354.660156 20.339844 L 354.660156 354.660156 L 20.339844 354.660156 Z M 20.339844 20.339844 " fill-opacity="1" fill-rule="nonzero"/></g></g><g clip-path="url(#edcfc67451)"><g clip-path="url(#4fed49ffd5)"><path stroke-linecap="butt" transform="matrix(0.9375, 0, 0, 0.9375, 20.341596, 20.341592)" fill="none" stroke-linejoin="miter" d="M 5.598131 -0.00186457 L 350.993987 -0.00186457 C 352.47732 -0.00186457 353.902321 0.589802 354.952321 1.639802 C 356.002321 2.689802 356.593987 4.114802 356.593987 5.598136 L 356.593987 350.993992 C 356.593987 352.477325 356.002321 353.902325 354.952321 354.952325 C 353.902321 356.002325 352.47732 356.593992 350.993987 356.593992 L 5.598131 356.593992 C 4.114798 356.593992 2.689797 356.002325 1.639797 354.952325 C 0.589797 353.902325 -0.00186937 352.477325 -0.00186937 350.993992 L -0.00186937 5.598136 C -0.00186937 4.114802 0.589797 2.689802 1.639797 1.639802 C 2.689797 0.589802 4.114798 -0.00186457 5.598131 -0.00186457 Z M 5.598131 -0.00186457 " stroke="#ffd492" stroke-width="9.6" stroke-opacity="1" stroke-miterlimit="4"/></g></g><g clip-path="url(#6152ee231b)"><path fill="#ffd492" d="M 22.453125 227.160156 L 352.546875 227.160156 L 352.546875 354.660156 L 22.453125 354.660156 Z M 22.453125 227.160156 " fill-opacity="1" fill-rule="nonzero"/></g><g clip-path="url(#a18000489b)"><g clip-path="url(#1d1fd5dc34)"><g clip-path="url(#c8a0aab6e5)"><g clip-path="url(#fe14d95404)"><g clip-path="url(#b3f65f55bd)"><path fill="#00bf63" d="M 59.3125 91.207031 C 59.3125 91.207031 53.734375 85.105469 38.554688 86.277344 C 38.554688 86.277344 52.28125 77.246094 65.320312 87.339844 C 65.320312 87.339844 72.003906 74.785156 90.496094 78.585938 C 90.496094 78.585938 77.949219 79.964844 71.613281 89.753906 C 71.613281 89.753906 93.832031 79.78125 105.277344 98.175781 C 105.277344 98.175781 92.070312 90.242188 73.117188 94.371094 C 73.117188 94.371094 98.019531 102.167969 87.058594 124.496094 C 87.058594 124.496094 86.042969 106.929688 69.515625 99.21875 C 79.460938 125.945312 79.503906 153.53125 78.4375 168.890625 C 85.6875 148.460938 104.238281 104.46875 139.257812 69.980469 C 107.566406 68.902344 99.296875 88.402344 99.296875 88.402344 C 99.652344 52.675781 137.375 60.792969 137.375 60.792969 C 113.414062 42.527344 89.613281 45.019531 89.613281 45.019531 C 117.808594 26.648438 142.527344 55.28125 142.527344 55.28125 C 140.035156 37.34375 123.285156 27.160156 123.285156 27.160156 C 151.808594 33.960938 152.964844 56.019531 152.964844 56.019531 C 177.953125 50.378906 191.339844 72.109375 191.339844 72.109375 C 170.742188 60.488281 158.878906 65.414062 158.878906 65.414062 C 203.121094 83.144531 183.761719 119.894531 183.761719 119.894531 C 183.707031 92.191406 157.636719 80.066406 157.636719 80.066406 C 161.199219 122.109375 127.933594 126.875 127.933594 126.875 C 150.167969 108.789062 144.0625 78.699219 143.371094 75.632812 C 129.609375 92.367188 97.199219 136.816406 94.453125 187.175781 L 65.324219 175.5 C 75.214844 146.433594 68.882812 114.269531 65.574219 101.394531 C 64.335938 102.996094 52.582031 118.886719 60.625 135.492188 C 60.625 135.492188 42.519531 123.652344 56.046875 100.097656 C 56.046875 100.097656 37.535156 100.070312 29.960938 116.214844 C 29.960938 116.214844 28.675781 89.503906 59.3125 91.207031 " fill-opacity="1" fill-rule="nonzero"/></g></g></g></g></g><g clip-path="url(#35ff5cdb01)"><g clip-path="url(#0f480dbe04)"><g clip-path="url(#134b4ab15a)"><g clip-path="url(#60bc04b5d2)"><g clip-path="url(#72a2722c30)"><path fill="#00bf63" d="M 114.660156 195.65625 C 114.660156 195.65625 107.375 176.019531 95.039062 174.824219 C 95.039062 174.824219 91.652344 162.605469 79.152344 165.332031 C 79.152344 165.332031 76.171875 159.789062 71.210938 163.710938 C 62.976562 170.21875 53 158.523438 44.785156 167.652344 L 114.660156 195.65625 " fill-opacity="1" fill-rule="nonzero"/></g></g></g></g></g><g clip-path="url(#43aa1708e2)"><path fill="#377fb8" d="M 120.191406 198.496094 C 143.433594 191.757812 124.066406 171.550781 127.9375 168.183594 C 131.8125 164.8125 158.925781 168.183594 158.925781 191.757812 C 181.816406 185.023438 162.449219 171.550781 166.671875 168.183594 C 170.898438 164.8125 197.660156 168.183594 197.660156 191.757812 C 220.902344 185.023438 201.535156 171.550781 205.40625 168.183594 C 209.28125 164.8125 236.394531 171.550781 236.394531 195.128906 C 236.394531 201.863281 236.394531 198.496094 236.394531 198.496094 C 236.394531 198.496094 228.648438 174.917969 213.15625 174.917969 C 217.027344 191.757812 205.40625 195.128906 193.789062 198.496094 C 193.789062 188.390625 189.914062 174.917969 174.421875 174.917969 C 178.292969 191.757812 166.671875 195.128906 155.054688 198.496094 C 155.054688 188.390625 151.179688 174.917969 135.6875 174.917969 C 139.558594 191.757812 131.8125 198.496094 120.191406 198.496094 " fill-opacity="1" fill-rule="nonzero"/></g><g clip-path="url(#28b6e3076e)"><path fill="#377fb8" d="M 120.191406 210.242188 L 120.191406 204.011719 C 124.5625 204.011719 127.570312 202.824219 131.917969 199.972656 C 132.277344 199.738281 133.492188 198.925781 133.574219 198.875 C 134.242188 198.429688 134.761719 198.097656 135.269531 197.785156 C 138.191406 195.996094 140.617188 195.109375 143.433594 195.109375 C 147.710938 195.109375 150.4375 197.085938 152.863281 200.804688 C 153.152344 201.246094 154.039062 202.6875 154.210938 202.949219 C 154.792969 203.847656 154.988281 204.011719 155.054688 204.011719 C 159.421875 204.011719 162.433594 202.824219 166.78125 199.972656 C 167.136719 199.738281 168.355469 198.925781 168.433594 198.875 C 169.105469 198.429688 169.621094 198.097656 170.132812 197.785156 C 173.054688 195.996094 175.476562 195.109375 178.292969 195.109375 C 182.347656 195.109375 185.484375 196.839844 189.1875 200.242188 C 193.484375 204.191406 193.257812 204.011719 193.789062 204.011719 C 198.15625 204.011719 201.167969 202.824219 205.515625 199.972656 C 205.875 199.738281 207.089844 198.925781 207.167969 198.875 C 207.839844 198.429688 208.355469 198.097656 208.867188 197.785156 C 211.789062 195.996094 214.210938 195.109375 217.027344 195.109375 C 221.425781 195.042969 224.699219 197.421875 228.214844 200.085938 C 232.144531 203.09375 233.875 204.011719 236.394531 204.011719 L 236.394531 210.242188 C 232 210.304688 228.722656 207.929688 225.207031 205.265625 C 221.277344 202.257812 219.550781 201.339844 217.027344 201.339844 C 215.242188 201.339844 213.625 201.929688 211.417969 203.28125 C 210.96875 203.558594 210.5 203.859375 209.875 204.273438 C 209.808594 204.316406 208.582031 205.132812 208.207031 205.378906 C 203.113281 208.722656 199.261719 210.242188 193.789062 210.242188 C 192.21875 210.242188 190.824219 209.550781 189.257812 208.28125 C 188.738281 207.855469 188.21875 207.390625 187.503906 206.714844 C 186.9375 206.175781 186.371094 205.640625 185.800781 205.109375 C 182.96875 202.503906 180.855469 201.339844 178.292969 201.339844 C 176.503906 201.339844 174.890625 201.929688 172.683594 203.28125 C 172.234375 203.558594 171.765625 203.859375 171.140625 204.273438 C 171.074219 204.316406 169.84375 205.132812 169.472656 205.378906 C 164.378906 208.722656 160.527344 210.242188 155.054688 210.242188 C 152.835938 210.242188 151.382812 209.003906 149.871094 206.6875 C 149.640625 206.332031 148.75 204.890625 148.527344 204.542969 C 147.03125 202.257812 145.773438 201.339844 143.433594 201.339844 C 141.644531 201.339844 140.027344 201.929688 137.824219 203.28125 C 137.371094 203.558594 136.90625 203.859375 136.28125 204.273438 C 136.214844 204.316406 134.984375 205.132812 134.609375 205.378906 C 129.515625 208.722656 125.667969 210.242188 120.191406 210.242188 " fill-opacity="1" fill-rule="nonzero"/></g><g clip-path="url(#c91a4080d6)"><path fill="#377fb8" d="M 120.191406 223.589844 L 120.191406 217.359375 C 124.5625 217.359375 127.570312 216.175781 131.917969 213.320312 C 132.277344 213.085938 133.492188 212.277344 133.574219 212.222656 C 134.242188 211.777344 134.761719 211.445312 135.269531 211.132812 C 138.191406 209.34375 140.617188 208.460938 143.433594 208.460938 C 147.710938 208.460938 150.4375 210.4375 152.863281 214.15625 C 153.152344 214.59375 154.039062 216.035156 154.210938 216.296875 C 154.792969 217.195312 154.988281 217.359375 155.054688 217.359375 C 159.421875 217.359375 162.433594 216.175781 166.78125 213.320312 C 167.136719 213.085938 168.355469 212.277344 168.433594 212.222656 C 169.105469 211.777344 169.621094 211.445312 170.132812 211.132812 C 173.054688 209.34375 175.476562 208.460938 178.292969 208.460938 C 182.347656 208.460938 185.484375 210.1875 189.1875 213.59375 C 193.484375 217.542969 193.257812 217.359375 193.789062 217.359375 C 198.15625 217.359375 201.167969 216.175781 205.515625 213.320312 C 205.875 213.085938 207.089844 212.277344 207.167969 212.222656 C 207.839844 211.777344 208.355469 211.445312 208.867188 211.132812 C 211.789062 209.34375 214.210938 208.460938 217.027344 208.460938 C 221.425781 208.394531 224.699219 210.769531 228.214844 213.433594 C 232.144531 216.441406 233.875 217.359375 236.394531 217.359375 L 236.394531 223.589844 C 232 223.65625 228.722656 221.28125 225.207031 218.617188 C 221.277344 215.609375 219.550781 214.6875 217.027344 214.6875 C 215.242188 214.6875 213.625 215.277344 211.417969 216.628906 C 210.96875 216.90625 210.5 217.207031 209.875 217.621094 C 209.808594 217.667969 208.582031 218.484375 208.207031 218.730469 C 203.113281 222.074219 199.261719 223.589844 193.789062 223.589844 C 192.21875 223.589844 190.824219 222.898438 189.257812 221.628906 C 188.738281 221.203125 188.21875 220.742188 187.503906 220.066406 C 186.9375 219.527344 186.371094 218.988281 185.800781 218.457031 C 182.96875 215.855469 180.855469 214.6875 178.292969 214.6875 C 176.503906 214.6875 174.890625 215.277344 172.683594 216.628906 C 172.234375 216.90625 171.765625 217.207031 171.140625 217.621094 C 171.074219 217.667969 169.84375 218.484375 169.472656 218.730469 C 164.378906 222.074219 160.527344 223.589844 155.054688 223.589844 C 152.835938 223.589844 151.382812 222.355469 149.871094 220.039062 C 149.640625 219.679688 148.75 218.238281 148.527344 217.894531 C 147.03125 215.605469 145.773438 214.6875 143.433594 214.6875 C 141.644531 214.6875 140.027344 215.277344 137.824219 216.628906 C 137.371094 216.90625 136.90625 217.207031 136.28125 217.621094 C 136.214844 217.667969 134.984375 218.484375 134.609375 218.730469 C 129.515625 222.074219 125.667969 223.589844 120.191406 223.589844 " fill-opacity="1" fill-rule="nonzero"/></g><g clip-path="url(#c9ad0af8c3)"><path fill="#377fb8" d="M 120.191406 236.9375 L 120.191406 230.710938 C 124.5625 230.710938 127.570312 229.523438 131.917969 226.671875 C 132.277344 226.433594 133.492188 225.625 133.574219 225.574219 C 134.242188 225.128906 134.761719 224.796875 135.269531 224.484375 C 138.191406 222.691406 140.617188 221.808594 143.433594 221.808594 C 147.710938 221.808594 150.4375 223.785156 152.863281 227.503906 C 153.152344 227.941406 154.039062 229.386719 154.210938 229.648438 C 154.792969 230.546875 154.988281 230.710938 155.054688 230.710938 C 159.421875 230.710938 162.433594 229.523438 166.78125 226.671875 C 167.136719 226.433594 168.355469 225.625 168.433594 225.574219 C 169.105469 225.128906 169.621094 224.796875 170.132812 224.484375 C 173.054688 222.691406 175.476562 221.808594 178.292969 221.808594 C 182.347656 221.808594 185.484375 223.539062 189.1875 226.941406 C 193.484375 230.890625 193.257812 230.710938 193.789062 230.710938 C 198.15625 230.710938 201.167969 229.523438 205.515625 226.671875 C 205.875 226.433594 207.089844 225.625 207.167969 225.574219 C 207.839844 225.128906 208.355469 224.796875 208.867188 224.484375 C 211.789062 222.691406 214.210938 221.808594 217.027344 221.808594 C 221.425781 221.742188 224.699219 224.121094 228.214844 226.78125 C 232.144531 229.792969 233.875 230.710938 236.394531 230.710938 L 236.394531 236.9375 C 232 237.003906 228.722656 234.628906 225.207031 231.964844 C 221.277344 228.957031 219.550781 228.039062 217.027344 228.039062 C 215.242188 228.039062 213.625 228.628906 211.417969 229.980469 C 210.96875 230.253906 210.5 230.558594 209.875 230.972656 C 209.808594 231.015625 208.582031 231.832031 208.207031 232.078125 C 203.113281 235.421875 199.261719 236.9375 193.789062 236.9375 C 192.21875 236.9375 190.824219 236.25 189.257812 234.980469 C 188.738281 234.554688 188.21875 234.089844 187.503906 233.414062 C 186.9375 232.875 186.371094 232.335938 185.800781 231.808594 C 182.96875 229.203125 180.855469 228.039062 178.292969 228.039062 C 176.503906 228.039062 174.890625 228.628906 172.683594 229.980469 C 172.234375 230.253906 171.765625 230.558594 171.140625 230.972656 C 171.074219 231.015625 169.84375 231.832031 169.472656 232.078125 C 164.378906 235.421875 160.527344 236.9375 155.054688 236.9375 C 152.835938 236.9375 151.382812 235.703125 149.871094 233.386719 C 149.640625 233.03125 148.75 231.589844 148.527344 231.246094 C 147.03125 228.957031 145.773438 228.039062 143.433594 228.039062 C 141.644531 228.039062 140.027344 228.628906 137.824219 229.980469 C 137.371094 230.253906 136.90625 230.558594 136.28125 230.972656 C 136.214844 231.015625 134.984375 231.832031 134.609375 232.078125 C 129.515625 235.421875 125.667969 236.9375 120.191406 236.9375 " fill-opacity="1" fill-rule="nonzero"/></g><g clip-path="url(#29f5534b8d)"><path fill="#377fb8" d="M 235.152344 198.496094 C 258.394531 191.757812 239.027344 171.550781 242.902344 168.183594 C 246.773438 164.8125 273.886719 168.183594 273.886719 191.757812 C 296.777344 185.023438 277.410156 171.550781 281.636719 168.183594 C 285.859375 164.8125 312.621094 168.183594 312.621094 191.757812 C 335.863281 185.023438 316.496094 171.550781 320.371094 168.183594 C 324.242188 164.8125 351.359375 171.550781 351.359375 195.128906 C 351.359375 201.863281 351.359375 198.496094 351.359375 198.496094 C 351.359375 198.496094 343.609375 174.917969 328.117188 174.917969 C 331.992188 191.757812 320.371094 195.128906 308.75 198.496094 C 308.75 188.390625 304.875 174.917969 289.382812 174.917969 C 293.257812 191.757812 281.636719 195.128906 270.015625 198.496094 C 270.015625 188.390625 266.140625 174.917969 250.648438 174.917969 C 254.519531 191.757812 246.773438 198.496094 235.152344 198.496094 " fill-opacity="1" fill-rule="nonzero"/></g><g clip-path="url(#9996832954)"><path fill="#377fb8" d="M 235.152344 210.242188 L 235.152344 204.011719 C 239.523438 204.011719 242.535156 202.824219 246.882812 199.972656 C 247.238281 199.738281 248.453125 198.925781 248.535156 198.875 C 249.203125 198.429688 249.722656 198.097656 250.230469 197.785156 C 253.152344 195.996094 255.578125 195.109375 258.394531 195.109375 C 262.671875 195.109375 265.398438 197.085938 267.824219 200.804688 C 268.113281 201.246094 269 202.6875 269.171875 202.949219 C 269.757812 203.847656 269.949219 204.011719 270.015625 204.011719 C 274.386719 204.011719 277.394531 202.824219 281.742188 199.972656 C 282.101562 199.738281 283.316406 198.925781 283.394531 198.875 C 284.066406 198.429688 284.582031 198.097656 285.09375 197.785156 C 288.015625 195.996094 290.4375 195.109375 293.257812 195.109375 C 297.308594 195.109375 300.445312 196.839844 304.148438 200.242188 C 308.445312 204.191406 308.222656 204.011719 308.75 204.011719 C 313.121094 204.011719 316.128906 202.824219 320.476562 199.972656 C 320.835938 199.738281 322.050781 198.925781 322.128906 198.875 C 322.800781 198.429688 323.320312 198.097656 323.828125 197.785156 C 326.75 195.996094 329.171875 195.109375 331.992188 195.109375 C 336.390625 195.042969 339.664062 197.421875 343.179688 200.085938 C 347.109375 203.09375 348.839844 204.011719 351.359375 204.011719 L 351.359375 210.242188 C 346.960938 210.304688 343.683594 207.929688 340.171875 205.265625 C 336.242188 202.257812 334.511719 201.339844 331.992188 201.339844 C 330.203125 201.339844 328.585938 201.929688 326.378906 203.28125 C 325.929688 203.558594 325.460938 203.859375 324.835938 204.273438 C 324.773438 204.316406 323.542969 205.132812 323.167969 205.378906 C 318.074219 208.722656 314.222656 210.242188 308.75 210.242188 C 307.183594 210.242188 305.785156 209.550781 304.21875 208.28125 C 303.699219 207.855469 303.179688 207.390625 302.464844 206.714844 C 301.898438 206.175781 301.332031 205.640625 300.761719 205.109375 C 297.929688 202.503906 295.820312 201.339844 293.257812 201.339844 C 291.46875 201.339844 289.851562 201.929688 287.644531 203.28125 C 287.195312 203.558594 286.726562 203.859375 286.101562 204.273438 C 286.035156 204.316406 284.808594 205.132812 284.433594 205.378906 C 279.339844 208.722656 275.488281 210.242188 270.015625 210.242188 C 267.800781 210.242188 266.34375 209.003906 264.832031 206.6875 C 264.601562 206.332031 263.710938 204.890625 263.488281 204.542969 C 261.992188 202.257812 260.734375 201.339844 258.394531 201.339844 C 256.605469 201.339844 254.988281 201.929688 252.785156 203.28125 C 252.335938 203.558594 251.867188 203.859375 251.242188 204.273438 C 251.175781 204.316406 249.945312 205.132812 249.570312 205.378906 C 244.476562 208.722656 240.628906 210.242188 235.152344 210.242188 " fill-opacity="1" fill-rule="nonzero"/></g><g clip-path="url(#ae9a0b4084)"><path fill="#377fb8" d="M 235.152344 223.589844 L 235.152344 217.359375 C 239.523438 217.359375 242.535156 216.175781 246.882812 213.320312 C 247.238281 213.085938 248.453125 212.277344 248.535156 212.222656 C 249.203125 211.777344 249.722656 211.445312 250.230469 211.132812 C 253.152344 209.34375 255.578125 208.460938 258.394531 208.460938 C 262.671875 208.460938 265.398438 210.4375 267.824219 214.15625 C 268.113281 214.59375 269 216.035156 269.171875 216.296875 C 269.757812 217.195312 269.949219 217.359375 270.015625 217.359375 C 274.386719 217.359375 277.394531 216.175781 281.742188 213.320312 C 282.101562 213.085938 283.316406 212.277344 283.394531 212.222656 C 284.066406 211.777344 284.582031 211.445312 285.09375 211.132812 C 288.015625 209.34375 290.4375 208.460938 293.257812 208.460938 C 297.308594 208.460938 300.445312 210.1875 304.148438 213.59375 C 308.445312 217.542969 308.222656 217.359375 308.75 217.359375 C 313.121094 217.359375 316.128906 216.175781 320.476562 213.320312 C 320.835938 213.085938 322.050781 212.277344 322.128906 212.222656 C 322.800781 211.777344 323.320312 211.445312 323.828125 211.132812 C 326.75 209.34375 329.171875 208.460938 331.992188 208.460938 C 336.390625 208.394531 339.664062 210.769531 343.179688 213.433594 C 347.109375 216.441406 348.839844 217.359375 351.359375 217.359375 L 351.359375 223.589844 C 346.960938 223.65625 343.683594 221.28125 340.171875 218.617188 C 336.242188 215.609375 334.511719 214.6875 331.992188 214.6875 C 330.203125 214.6875 328.585938 215.277344 326.378906 216.628906 C 325.929688 216.90625 325.460938 217.207031 324.835938 217.621094 C 324.773438 217.667969 323.542969 218.484375 323.167969 218.730469 C 318.074219 222.074219 314.222656 223.589844 308.75 223.589844 C 307.183594 223.589844 305.785156 222.898438 304.21875 221.628906 C 303.699219 221.203125 303.179688 220.742188 302.464844 220.066406 C 301.898438 219.527344 301.332031 218.988281 300.761719 218.457031 C 297.929688 215.855469 295.820312 214.6875 293.257812 214.6875 C 291.46875 214.6875 289.851562 215.277344 287.644531 216.628906 C 287.195312 216.90625 286.726562 217.207031 286.101562 217.621094 C 286.035156 217.667969 284.808594 218.484375 284.433594 218.730469 C 279.339844 222.074219 275.488281 223.589844 270.015625 223.589844 C 267.800781 223.589844 266.34375 222.355469 264.832031 220.039062 C 264.601562 219.679688 263.710938 218.238281 263.488281 217.894531 C 261.992188 215.605469 260.734375 214.6875 258.394531 214.6875 C 256.605469 214.6875 254.988281 215.277344 252.785156 216.628906 C 252.335938 216.90625 251.867188 217.207031 251.242188 217.621094 C 251.175781 217.667969 249.945312 218.484375 249.570312 218.730469 C 244.476562 222.074219 240.628906 223.589844 235.152344 223.589844 " fill-opacity="1" fill-rule="nonzero"/></g><g clip-path="url(#184a805b50)"><path fill="#377fb8" d="M 235.152344 236.9375 L 235.152344 230.710938 C 239.523438 230.710938 242.535156 229.523438 246.882812 226.671875 C 247.238281 226.433594 248.453125 225.625 248.535156 225.574219 C 249.203125 225.128906 249.722656 224.796875 250.230469 224.484375 C 253.152344 222.691406 255.578125 221.808594 258.394531 221.808594 C 262.671875 221.808594 265.398438 223.785156 267.824219 227.503906 C 268.113281 227.941406 269 229.386719 269.171875 229.648438 C 269.757812 230.546875 269.949219 230.710938 270.015625 230.710938 C 274.386719 230.710938 277.394531 229.523438 281.742188 226.671875 C 282.101562 226.433594 283.316406 225.625 283.394531 225.574219 C 284.066406 225.128906 284.582031 224.796875 285.09375 224.484375 C 288.015625 222.691406 290.4375 221.808594 293.257812 221.808594 C 297.308594 221.808594 300.445312 223.539062 304.148438 226.941406 C 308.445312 230.890625 308.222656 230.710938 308.75 230.710938 C 313.121094 230.710938 316.128906 229.523438 320.476562 226.671875 C 320.835938 226.433594 322.050781 225.625 322.128906 225.574219 C 322.800781 225.128906 323.320312 224.796875 323.828125 224.484375 C 326.75 222.691406 329.171875 221.808594 331.992188 221.808594 C 336.390625 221.742188 339.664062 224.121094 343.179688 226.78125 C 347.109375 229.792969 348.839844 230.710938 351.359375 230.710938 L 351.359375 236.9375 C 346.960938 237.003906 343.683594 234.628906 340.171875 231.964844 C 336.242188 228.957031 334.511719 228.039062 331.992188 228.039062 C 330.203125 228.039062 328.585938 228.628906 326.378906 229.980469 C 325.929688 230.253906 325.460938 230.558594 324.835938 230.972656 C 324.773438 231.015625 323.542969 231.832031 323.167969 232.078125 C 318.074219 235.421875 314.222656 236.9375 308.75 236.9375 C 307.183594 236.9375 305.785156 236.25 304.21875 234.980469 C 303.699219 234.554688 303.179688 234.089844 302.464844 233.414062 C 301.898438 232.875 301.332031 232.335938 300.761719 231.808594 C 297.929688 229.203125 295.820312 228.039062 293.257812 228.039062 C 291.46875 228.039062 289.851562 228.628906 287.644531 229.980469 C 287.195312 230.253906 286.726562 230.558594 286.101562 230.972656 C 286.035156 231.015625 284.808594 231.832031 284.433594 232.078125 C 279.339844 235.421875 275.488281 236.9375 270.015625 236.9375 C 267.800781 236.9375 266.34375 235.703125 264.832031 233.386719 C 264.601562 233.03125 263.710938 231.589844 263.488281 231.246094 C 261.992188 228.957031 260.734375 228.039062 258.394531 228.039062 C 256.605469 228.039062 254.988281 228.628906 252.785156 229.980469 C 252.335938 230.253906 251.867188 230.558594 251.242188 230.972656 C 251.175781 231.015625 249.945312 231.832031 249.570312 232.078125 C 244.476562 235.421875 240.628906 236.9375 235.152344 236.9375 " fill-opacity="1" fill-rule="nonzero"/></g><g clip-path="url(#7b890869f5)"><path fill="#000000" d="M 71.316406 162.34375 C 71.535156 161.625 71.964844 160.1875 72.109375 159.429688 C 72.324219 158.460938 73.042969 153.101562 73.078125 152.347656 C 73.117188 151.554688 73.078125 145.765625 73.117188 144.507812 C 73.152344 143.25 72.46875 137.964844 72.46875 137.964844 C 72.613281 137.964844 72.71875 137.566406 72.757812 137.496094 C 72.792969 137.425781 72.71875 137.101562 72.757812 136.957031 C 72.828125 136.8125 72.578125 136.34375 72.578125 136.34375 C 72.71875 135.804688 72.074219 136.058594 72.074219 136.058594 C 72.035156 135.734375 71.066406 132.355469 71.066406 132.355469 C 70.5625 130.050781 68.65625 128.578125 68.65625 128.578125 C 67.46875 127.785156 66.03125 130.089844 66.03125 130.089844 C 64.882812 131.816406 64.199219 137.351562 64.199219 137.351562 C 63.980469 137.460938 63.980469 138 63.800781 137.820312 C 63.660156 137.640625 62.867188 137.066406 62.757812 137.027344 C 62.578125 136.921875 62.4375 136.597656 62.4375 136.597656 C 62.6875 136.058594 62.796875 135.015625 62.796875 135.015625 C 62.9375 135.121094 63.191406 134.980469 63.191406 134.980469 C 62.902344 134.871094 62.976562 134.871094 62.867188 134.476562 C 62.722656 134.078125 62.328125 133.972656 61.753906 132.929688 C 61.175781 131.851562 60.027344 131.996094 60.027344 131.996094 C 58.230469 132.316406 58.589844 134.691406 58.515625 134.980469 C 58.410156 135.265625 58.335938 135.949219 58.515625 136.597656 C 58.660156 137.246094 58.589844 137.101562 58.410156 137.964844 C 58.191406 138.789062 58.515625 139.367188 58.550781 139.726562 C 58.589844 140.085938 58.695312 140.335938 58.660156 140.660156 C 58.625 141.019531 58.335938 140.804688 58.335938 140.804688 C 58.15625 141.59375 58.984375 141.703125 58.984375 141.703125 C 58.910156 141.992188 58.839844 141.917969 58.839844 141.917969 C 58.949219 142.097656 59.414062 142.027344 59.414062 142.027344 C 59.414062 142.351562 59.199219 142.316406 59.199219 142.316406 C 59.558594 142.890625 60.242188 142.386719 60.242188 142.386719 C 60.816406 143.320312 60.53125 144.4375 60.421875 144.722656 C 60.277344 145.046875 60.171875 145.121094 59.019531 146.304688 C 57.832031 147.457031 58.480469 148.859375 58.589844 149.253906 C 58.730469 149.648438 58.839844 150.011719 58.910156 150.585938 C 58.949219 151.160156 59.34375 153.535156 59.34375 153.535156 C 59.128906 153.246094 57.078125 152.5625 56.035156 152.273438 C 54.957031 151.988281 54.957031 151.59375 54.957031 151.59375 C 54.882812 151.050781 54.882812 150.835938 54.488281 150.730469 C 54.09375 150.65625 53.519531 151.089844 53.265625 151.304688 C 53.050781 151.519531 52.726562 151.449219 52.367188 151.484375 C 52.007812 151.554688 51.792969 151.59375 51.394531 152.132812 C 51 152.671875 51.578125 153.175781 51.578125 153.175781 C 51.683594 153.714844 52.117188 153.101562 52.117188 153.101562 C 52.222656 152.921875 52.582031 152.816406 52.582031 152.816406 C 52.835938 152.886719 53.660156 152.886719 54.164062 153.03125 C 54.667969 153.210938 55.785156 153.570312 56.609375 154.253906 C 57.4375 154.972656 59.847656 156.339844 59.847656 156.339844 C 58.769531 156.914062 59.019531 160.871094 59.089844 160.976562 C 59.128906 161.011719 59.054688 161.695312 58.910156 162.34375 C 58.910156 162.34375 58.730469 162.738281 58.625 163.207031 C 58.515625 163.636719 58.335938 163.996094 58.589844 164.105469 C 58.839844 164.214844 59.199219 164.429688 59.199219 164.429688 C 59.199219 164.429688 59.667969 164.539062 59.847656 164.464844 C 60.0625 164.429688 60.097656 164.71875 60.3125 164.574219 C 60.53125 164.429688 60.566406 164.464844 60.78125 164.464844 C 60.960938 164.464844 61.285156 164.429688 61.285156 164.429688 C 61.320312 164.214844 61.535156 163.746094 61.175781 163.890625 C 60.816406 164.070312 60.171875 163.710938 60.3125 162.34375 C 60.242188 162.054688 60.351562 161.804688 60.386719 161.15625 C 60.421875 160.511719 60.675781 159.933594 60.78125 159.683594 C 60.890625 159.429688 61.285156 158.171875 61.320312 157.703125 C 61.394531 157.238281 61.609375 156.914062 61.609375 156.914062 C 62.078125 156.230469 62.472656 155.042969 62.507812 154.863281 C 62.507812 154.71875 62.542969 154.324219 62.542969 154.324219 C 63.40625 151.519531 62.757812 148.390625 62.757812 148.03125 C 62.757812 147.707031 63.117188 146.664062 63.261719 146.484375 C 63.371094 146.269531 63.550781 146.089844 63.550781 145.191406 C 63.550781 144.328125 63.765625 144.039062 63.765625 144.039062 C 63.585938 144.722656 64.019531 149.722656 64.019531 150.476562 C 64.019531 151.269531 65.097656 156.949219 65.097656 156.949219 C 65.203125 157.921875 66.285156 160.871094 66.824219 162.34375 C 66.824219 162.34375 67.289062 163.816406 67.542969 164.25 C 67.792969 164.71875 68.046875 164.789062 68.476562 164.789062 C 68.871094 164.789062 70.167969 164.789062 70.417969 164.609375 C 70.671875 164.464844 70.8125 164.25 70.921875 163.855469 C 71.03125 163.457031 71.316406 162.34375 71.316406 162.34375 Z M 71.316406 162.34375 " fill-opacity="1" fill-rule="nonzero"/></g><g clip-path="url(#0257ce3092)"><g clip-path="url(#2b739bd637)"><path fill="#ffd492" d="M 22.457031 270.355469 L 22.457031 163.871094 L 123.921875 163.871094 L 123.921875 270.355469 Z M 22.457031 270.355469 " fill-opacity="1" fill-rule="nonzero"/></g></g><g clip-path="url(#80f1b326ea)"><g clip-path="url(#4aebe22a82)"><g clip-path="url(#bff1b40787)"><path fill="#ffde59" d="M 303.191406 85.183594 C 303.457031 86.203125 303.671875 87.230469 303.839844 88.265625 C 304.003906 89.304688 304.117188 90.347656 304.179688 91.398438 C 304.238281 92.445312 304.25 93.496094 304.210938 94.546875 C 304.167969 95.59375 304.074219 96.640625 303.933594 97.683594 C 303.789062 98.722656 303.59375 99.753906 303.347656 100.777344 C 303.101562 101.796875 302.808594 102.804688 302.464844 103.796875 C 302.121094 104.792969 301.726562 105.765625 301.289062 106.71875 C 300.847656 107.671875 300.363281 108.605469 299.832031 109.511719 C 299.300781 110.417969 298.726562 111.296875 298.109375 112.144531 C 297.492188 112.996094 296.832031 113.8125 296.136719 114.597656 C 295.4375 115.386719 294.703125 116.132812 293.933594 116.847656 C 293.160156 117.5625 292.355469 118.234375 291.519531 118.871094 C 290.679688 119.503906 289.8125 120.097656 288.917969 120.644531 C 288.023438 121.195312 287.101562 121.699219 286.15625 122.15625 C 285.210938 122.617188 284.246094 123.027344 283.257812 123.390625 C 282.273438 123.753906 281.273438 124.070312 280.253906 124.335938 C 279.238281 124.601562 278.210938 124.816406 277.171875 124.980469 C 276.136719 125.144531 275.089844 125.257812 274.042969 125.320312 C 272.992188 125.382812 271.945312 125.390625 270.894531 125.351562 C 269.84375 125.308594 268.796875 125.21875 267.757812 125.074219 C 266.71875 124.929688 265.683594 124.734375 264.664062 124.488281 C 263.640625 124.246094 262.632812 123.949219 261.640625 123.605469 C 260.648438 123.261719 259.675781 122.871094 258.722656 122.429688 C 257.765625 121.992188 256.835938 121.503906 255.929688 120.972656 C 255.023438 120.441406 254.144531 119.867188 253.292969 119.25 C 252.445312 118.632812 251.625 117.976562 250.839844 117.277344 C 250.054688 116.578125 249.304688 115.84375 248.589844 115.074219 C 247.878906 114.300781 247.203125 113.496094 246.570312 112.660156 C 245.9375 111.820312 245.34375 110.953125 244.792969 110.058594 C 244.246094 109.164062 243.742188 108.242188 243.28125 107.296875 C 242.824219 106.351562 242.414062 105.386719 242.050781 104.398438 C 241.683594 103.414062 241.371094 102.414062 241.105469 101.398438 C 240.839844 100.378906 240.625 99.351562 240.460938 98.316406 C 240.296875 97.277344 240.183594 96.234375 240.121094 95.183594 C 240.058594 94.136719 240.046875 93.085938 240.089844 92.035156 C 240.128906 90.984375 240.222656 89.941406 240.367188 88.898438 C 240.511719 87.859375 240.703125 86.828125 240.949219 85.804688 C 241.195312 84.785156 241.488281 83.777344 241.832031 82.785156 C 242.179688 81.789062 242.570312 80.816406 243.007812 79.863281 C 243.449219 78.90625 243.933594 77.976562 244.464844 77.070312 C 244.996094 76.164062 245.570312 75.285156 246.1875 74.4375 C 246.808594 73.585938 247.464844 72.765625 248.164062 71.980469 C 248.859375 71.195312 249.59375 70.445312 250.367188 69.734375 C 251.136719 69.019531 251.941406 68.347656 252.78125 67.710938 C 253.617188 67.078125 254.484375 66.484375 255.378906 65.9375 C 256.277344 65.386719 257.199219 64.882812 258.144531 64.425781 C 259.089844 63.964844 260.054688 63.554688 261.039062 63.191406 C 262.023438 62.828125 263.027344 62.511719 264.042969 62.246094 C 265.058594 61.980469 266.085938 61.765625 267.125 61.601562 C 268.164062 61.4375 269.207031 61.324219 270.253906 61.261719 C 271.304688 61.199219 272.355469 61.1875 273.402344 61.230469 C 274.453125 61.273438 275.5 61.363281 276.539062 61.507812 C 277.582031 61.652344 278.613281 61.847656 279.632812 62.089844 C 280.65625 62.335938 281.664062 62.632812 282.65625 62.976562 C 283.648438 63.320312 284.621094 63.710938 285.578125 64.152344 C 286.53125 64.589844 287.460938 65.078125 288.367188 65.609375 C 289.277344 66.140625 290.152344 66.714844 291.003906 67.332031 C 291.855469 67.949219 292.671875 68.605469 293.457031 69.304688 C 294.242188 70 294.992188 70.738281 295.707031 71.507812 C 296.417969 72.28125 297.09375 73.085938 297.726562 73.921875 C 298.363281 74.757812 298.953125 75.625 299.503906 76.523438 C 300.050781 77.417969 300.554688 78.339844 301.015625 79.285156 C 301.472656 80.230469 301.886719 81.195312 302.25 82.179688 C 302.613281 83.167969 302.925781 84.167969 303.191406 85.183594 Z M 303.191406 85.183594 " fill-opacity="1" fill-rule="nonzero"/></g></g></g><g clip-path="url(#43000ed513)"><g clip-path="url(#769793897f)"><g clip-path="url(#13cd6a6770)"><path fill="#ffde59" d="M 256.886719 59.910156 L 260.242188 47.691406 L 269.144531 56.710938 Z M 256.886719 59.910156 " fill-opacity="1" fill-rule="nonzero"/></g></g></g><g clip-path="url(#1783b49c25)"><g clip-path="url(#0d0178d23e)"><g clip-path="url(#72bb1fd842)"><path fill="#ffde59" d="M 242.242188 72.015625 L 239.039062 59.753906 L 251.257812 63.113281 Z M 242.242188 72.015625 " fill-opacity="1" fill-rule="nonzero"/></g></g></g><g clip-path="url(#3dbae6f4c7)"><g clip-path="url(#6ab898c562)"><g clip-path="url(#53cb1db7c3)"><path fill="#ffde59" d="M 235.609375 89.816406 L 226.707031 80.804688 L 238.96875 77.605469 Z M 235.609375 89.816406 " fill-opacity="1" fill-rule="nonzero"/></g></g></g><g clip-path="url(#35b7e65953)"><g clip-path="url(#2e3075aa67)"><g clip-path="url(#94ed174c01)"><path fill="#ffde59" d="M 238.769531 108.554688 L 226.550781 105.199219 L 235.570312 96.296875 Z M 238.769531 108.554688 " fill-opacity="1" fill-rule="nonzero"/></g></g></g><g clip-path="url(#92c66fab6c)"><g clip-path="url(#70aecfde18)"><g clip-path="url(#3b62590347)"><path fill="#ffde59" d="M 250.871094 123.199219 L 238.613281 126.402344 L 241.972656 114.183594 Z M 250.871094 123.199219 " fill-opacity="1" fill-rule="nonzero"/></g></g></g><g clip-path="url(#87c0b5f0c7)"><g clip-path="url(#8634b0ff7c)"><g clip-path="url(#9c918eed71)"><path fill="#ffde59" d="M 268.675781 129.832031 L 259.660156 138.734375 L 256.460938 126.472656 Z M 268.675781 129.832031 " fill-opacity="1" fill-rule="nonzero"/></g></g></g><g clip-path="url(#ffff3fefc8)"><g clip-path="url(#f80b427dcd)"><g clip-path="url(#3b430c2f8f)"><path fill="#ffde59" d="M 287.410156 126.671875 L 284.054688 138.890625 L 275.15625 129.871094 Z M 287.410156 126.671875 " fill-opacity="1" fill-rule="nonzero"/></g></g></g><g clip-path="url(#8ca2e1c562)"><g clip-path="url(#85a21a23f5)"><g clip-path="url(#56542856b6)"><path fill="#ffde59" d="M 302.054688 114.570312 L 305.261719 126.828125 L 293.042969 123.46875 Z M 302.054688 114.570312 " fill-opacity="1" fill-rule="nonzero"/></g></g></g><g clip-path="url(#0decdb2227)"><g clip-path="url(#83f9c67d6a)"><g clip-path="url(#ac28486db5)"><path fill="#ffde59" d="M 308.6875 96.765625 L 317.59375 105.777344 L 305.332031 108.980469 Z M 308.6875 96.765625 " fill-opacity="1" fill-rule="nonzero"/></g></g></g><g clip-path="url(#cf91b6c338)"><g clip-path="url(#e96791da7d)"><g clip-path="url(#3da1f9abcb)"><path fill="#ffde59" d="M 305.53125 78.03125 L 317.746094 81.382812 L 308.730469 90.285156 Z M 305.53125 78.03125 " fill-opacity="1" fill-rule="nonzero"/></g></g></g><g clip-path="url(#53eb04eb9e)"><g clip-path="url(#e0b29dbd91)"><g clip-path="url(#c4d8b777c5)"><path fill="#ffde59" d="M 293.425781 63.382812 L 305.683594 60.179688 L 302.324219 72.398438 Z M 293.425781 63.382812 " fill-opacity="1" fill-rule="nonzero"/></g></g></g><g clip-path="url(#39214ddc11)"><g clip-path="url(#4ecd13607d)"><g clip-path="url(#837110dce2)"><path fill="#ffde59" d="M 275.621094 56.753906 L 284.636719 47.847656 L 287.835938 60.109375 Z M 275.621094 56.753906 " fill-opacity="1" fill-rule="nonzero"/></g></g></g><g fill="#fffff5" fill-opacity="1"><g transform="translate(33.350149, 193.363713)"><g><path d="M 9 0 L 9 -2.859375 L 4.460938 -2.859375 L 4.460938 -5.71875 L 8.21875 -5.71875 L 8.21875 -8.578125 L 4.460938 -8.578125 L 4.460938 -11.4375 L 8.757812 -11.4375 L 8.757812 -14.296875 L 1.601562 -14.296875 L 1.601562 0 Z M 9 0 "/></g></g></g><g fill="#fffff5" fill-opacity="1"><g transform="translate(44.82778, 193.363713)"><g><path d="M 0.941406 -0.917969 C 2.878906 0.078125 4.660156 0.179688 5.460938 0.121094 C 8.140625 -0.0195312 9.777344 -1.839844 9.777344 -4.21875 C 9.777344 -6.5 7.859375 -7.777344 5.640625 -8.597656 C 4.820312 -8.878906 4.121094 -9.238281 4.039062 -10.039062 C 3.980469 -10.839844 4.4375 -11.578125 5.460938 -11.636719 C 5.898438 -11.65625 6.800781 -11.679688 8.378906 -11.039062 L 8.738281 -13.796875 C 6.898438 -14.4375 5.917969 -14.4375 5.179688 -14.398438 C 2.800781 -14.277344 1.140625 -12.4375 1.140625 -10.039062 C 1.140625 -7.640625 3.140625 -6.5 5.378906 -5.679688 C 6.179688 -5.398438 6.800781 -5.039062 6.859375 -4.21875 C 6.9375 -3.441406 6.21875 -2.839844 5.378906 -2.78125 C 4.71875 -2.71875 2.941406 -2.757812 1.300781 -3.917969 Z M 0.941406 -0.917969 "/></g></g></g><g fill="#fffff5" fill-opacity="1"><g transform="translate(56.80529, 193.363713)"><g><path d="M 6.820312 0 L 6.820312 -11.4375 L 10.378906 -11.4375 L 10.378906 -14.277344 L 0.398438 -14.277344 L 0.398438 -11.4375 L 3.960938 -11.4375 L 3.960938 0 Z M 6.820312 0 "/></g></g></g><g fill="#fffff5" fill-opacity="1"><g transform="translate(69.142717, 193.363713)"><g><path d="M 5.859375 -14.296875 L 1.601562 -14.296875 L 1.601562 0 L 5.859375 0 C 15.378906 0 15.378906 -14.296875 5.859375 -14.296875 Z M 5.859375 -11.4375 C 11.417969 -11.4375 11.417969 -2.859375 5.859375 -2.859375 L 4.460938 -2.859375 L 4.460938 -11.4375 Z M 5.859375 -11.4375 "/></g></g></g><g fill="#fffff5" fill-opacity="1"><g transform="translate(34.785696, 224.877597)"><g><path d="M 5.460938 -8.480469 L 0.121094 0 L 9.558594 0 L 9.558594 -2.898438 L 5.320312 -2.898438 L 8.140625 -7.257812 C 10.539062 -10.597656 9.136719 -14.277344 4.9375 -14.496094 C 3.539062 -14.558594 1.800781 -13.996094 0.699219 -13.199219 L 1.398438 -10.4375 C 1.859375 -10.839844 3.441406 -11.65625 4.699219 -11.578125 C 5.539062 -11.539062 6.179688 -10.9375 6.179688 -10.136719 C 6.179688 -10.136719 6.21875 -9.558594 5.460938 -8.480469 Z M 5.460938 -8.480469 "/></g></g></g><g fill="#fffff5" fill-opacity="1"><g transform="translate(46.603245, 224.877597)"><g><path d="M 5.9375 0.199219 C 9.5 0.199219 10.859375 -3.097656 10.859375 -7.160156 C 10.859375 -11.21875 9.5 -14.496094 5.9375 -14.496094 C 2.417969 -14.496094 1.039062 -11.21875 1.039062 -7.160156 C 1.039062 -3.097656 2.417969 0.199219 5.9375 0.199219 Z M 5.9375 -2.5 C 4.359375 -2.5 3.820312 -4.578125 3.820312 -7.160156 C 3.820312 -9.71875 4.359375 -11.816406 5.9375 -11.816406 C 7.558594 -11.816406 8.097656 -9.71875 8.097656 -7.160156 C 8.097656 -4.578125 7.558594 -2.5 5.9375 -2.5 Z M 5.9375 -2.5 "/></g></g></g><g fill="#fffff5" fill-opacity="1"><g transform="translate(59.940427, 224.877597)"><g><path d="M 5.460938 -8.480469 L 0.121094 0 L 9.558594 0 L 9.558594 -2.898438 L 5.320312 -2.898438 L 8.140625 -7.257812 C 10.539062 -10.597656 9.136719 -14.277344 4.9375 -14.496094 C 3.539062 -14.558594 1.800781 -13.996094 0.699219 -13.199219 L 1.398438 -10.4375 C 1.859375 -10.839844 3.441406 -11.65625 4.699219 -11.578125 C 5.539062 -11.539062 6.179688 -10.9375 6.179688 -10.136719 C 6.179688 -10.136719 6.21875 -9.558594 5.460938 -8.480469 Z M 5.460938 -8.480469 "/></g></g></g><g fill="#fffff5" fill-opacity="1"><g transform="translate(71.757978, 224.877597)"><g><path d="M 3.238281 -5.839844 L 4.621094 -5.839844 C 5.480469 -5.839844 6.179688 -5.058594 6.199219 -4.257812 C 6.257812 -1.980469 2.121094 -2.820312 0.898438 -3.417969 L 0.578125 -0.519531 C 1.480469 -0.140625 3.597656 0.199219 5.019531 0.121094 C 7.796875 -0.0195312 9.296875 -1.839844 9.238281 -4.257812 C 9.21875 -5.378906 8.71875 -6.640625 7.578125 -7.300781 C 8.738281 -8.058594 9.117188 -8.980469 9.097656 -10.097656 C 9.039062 -12.539062 7.257812 -14.335938 4.679688 -14.496094 C 3.257812 -14.558594 1.820312 -14.277344 0.917969 -13.917969 L 1.359375 -11.21875 C 2.480469 -11.796875 5.980469 -12.199219 6.039062 -10.097656 C 6.058594 -9.277344 5.417969 -8.757812 4.558594 -8.757812 L 3.179688 -8.757812 Z M 3.238281 -5.839844 "/></g></g></g><path stroke-linecap="round" transform="matrix(0.9375, -0.000000000000000698, 0.000000000000000698, 0.9375, 18.403905, 199.690168)" fill="none" stroke-linejoin="miter" d="M 1.998335 2.001321 L 74.48584 2.001321 " stroke="#fffff5" stroke-width="4" stroke-opacity="1" stroke-miterlimit="4"/><g fill="#fffff5" fill-opacity="1"><g transform="translate(31.836126, 307.789902)"><g><path d="M 0.980469 -2.203125 C 0.980469 -2.203125 6.003906 0.550781 15.1875 0.550781 C 26.273438 0.550781 30.257812 -4.164062 30.257812 -10.78125 C 30.257812 -17.148438 27.195312 -20.824219 21.070312 -22.417969 L 15.25 -24.007812 C 12.496094 -24.683594 11.699219 -26.089844 11.699219 -27.929688 C 11.699219 -29.886719 13.105469 -30.746094 15.066406 -30.746094 C 18.804688 -30.746094 21.007812 -29.152344 21.621094 -25.480469 L 28.910156 -25.480469 L 28.910156 -36.378906 C 28.910156 -36.378906 23.949219 -39.136719 15.863281 -39.136719 C 5.941406 -39.136719 0.980469 -35.523438 0.980469 -27.804688 C 0.980469 -21.4375 4.289062 -17.640625 10.226562 -16.046875 L 15.679688 -14.578125 C 18.375 -13.839844 19.597656 -12.738281 19.597656 -10.78125 C 19.597656 -8.941406 18.3125 -7.839844 15.617188 -7.839844 C 11.332031 -7.839844 9.1875 -9.433594 8.328125 -13.105469 L 0.980469 -13.105469 Z M 0.980469 -2.203125 "/></g></g></g><g fill="#fffff5" fill-opacity="1"><g transform="translate(67.358606, 307.789902)"><g><path d="M 32.339844 -38.585938 L 1.960938 -38.585938 L 1.960938 -31.296875 C 3.675781 -31.296875 4.042969 -30.992188 4.042969 -29.277344 L 4.042969 -9.308594 C 4.042969 -7.59375 3.675781 -7.289062 1.960938 -7.289062 L 1.960938 0 L 32.339844 0 L 32.339844 -13.839844 L 24.988281 -13.839844 C 24.988281 -8.878906 24.4375 -8.328125 19.476562 -8.328125 L 14.761719 -8.328125 L 14.761719 -15.128906 L 22.660156 -15.128906 L 22.660156 -23.457031 L 14.761719 -23.457031 L 14.761719 -30.257812 L 19.476562 -30.257812 C 24.4375 -30.257812 24.988281 -29.703125 24.988281 -24.742188 L 32.339844 -24.742188 Z M 32.339844 -38.585938 "/></g></g></g><g fill="#fffff5" fill-opacity="1"><g transform="translate(105.085919, 307.789902)"><g><path d="M 4.839844 -38.585938 L 4.839844 -31.296875 C 6.371094 -31.296875 7.71875 -31.296875 8.878906 -31.234375 L 3.980469 -10.105469 C 3.125 -7.65625 2.757812 -7.289062 0.550781 -7.289062 L 0.550781 0 L 15.128906 0 L 15.128906 -7.289062 C 13.65625 -7.289062 13.046875 -7.472656 13.046875 -8.390625 C 13.046875 -8.878906 13.167969 -9.554688 13.472656 -10.535156 L 13.964844 -13.105469 L 18.925781 -13.105469 L 19.355469 -10.535156 C 19.660156 -9.617188 19.78125 -8.941406 19.78125 -8.453125 C 19.78125 -7.535156 19.171875 -7.289062 17.699219 -7.289062 L 17.699219 0 L 34.054688 0 L 34.054688 -7.289062 C 31.847656 -7.289062 31.480469 -7.65625 30.625 -10.105469 L 23.824219 -38.585938 Z M 16.597656 -26.824219 C 16.84375 -26.089844 17.027344 -25.171875 17.210938 -24.132812 L 17.945312 -19.414062 L 15.1875 -19.414062 Z M 16.597656 -26.824219 "/></g></g></g><g fill="#fffff5" fill-opacity="1"><g transform="translate(143.915641, 307.789902)"><g/></g></g><g fill="#fffff5" fill-opacity="1"><g transform="translate(160.574626, 307.789902)"><g><path d="M 0.980469 -2.203125 C 0.980469 -2.203125 6.003906 0.550781 15.1875 0.550781 C 26.273438 0.550781 30.257812 -4.164062 30.257812 -10.78125 C 30.257812 -17.148438 27.195312 -20.824219 21.070312 -22.417969 L 15.25 -24.007812 C 12.496094 -24.683594 11.699219 -26.089844 11.699219 -27.929688 C 11.699219 -29.886719 13.105469 -30.746094 15.066406 -30.746094 C 18.804688 -30.746094 21.007812 -29.152344 21.621094 -25.480469 L 28.910156 -25.480469 L 28.910156 -36.378906 C 28.910156 -36.378906 23.949219 -39.136719 15.863281 -39.136719 C 5.941406 -39.136719 0.980469 -35.523438 0.980469 -27.804688 C 0.980469 -21.4375 4.289062 -17.640625 10.226562 -16.046875 L 15.679688 -14.578125 C 18.375 -13.839844 19.597656 -12.738281 19.597656 -10.78125 C 19.597656 -8.941406 18.3125 -7.839844 15.617188 -7.839844 C 11.332031 -7.839844 9.1875 -9.433594 8.328125 -13.105469 L 0.980469 -13.105469 Z M 0.980469 -2.203125 "/></g></g></g><g fill="#fffff5" fill-opacity="1"><g transform="translate(196.097113, 307.789902)"><g><path d="M 0.980469 -19.292969 C 0.980469 -5.632812 6.738281 0.550781 19.109375 0.550781 C 24.804688 0.550781 29.09375 -0.796875 32.09375 -3.613281 L 32.09375 -13.65625 L 24.742188 -13.65625 C 24.4375 -9.554688 22.109375 -8.144531 18.679688 -8.144531 C 14.027344 -8.144531 11.699219 -11.085938 11.699219 -19.292969 C 11.699219 -27.5 14.027344 -30.441406 18.679688 -30.441406 C 22.355469 -30.441406 24.4375 -29.03125 24.742188 -24.925781 L 32.09375 -24.925781 L 32.09375 -34.972656 C 29.09375 -37.789062 24.804688 -39.136719 19.109375 -39.136719 C 6.738281 -39.136719 0.980469 -32.949219 0.980469 -19.292969 Z M 0.980469 -19.292969 "/></g></g></g><g fill="#fffff5" fill-opacity="1"><g transform="translate(233.334469, 307.789902)"><g><path d="M 4.839844 -38.585938 L 4.839844 -31.296875 C 6.371094 -31.296875 7.71875 -31.296875 8.878906 -31.234375 L 3.980469 -10.105469 C 3.125 -7.65625 2.757812 -7.289062 0.550781 -7.289062 L 0.550781 0 L 15.128906 0 L 15.128906 -7.289062 C 13.65625 -7.289062 13.046875 -7.472656 13.046875 -8.390625 C 13.046875 -8.878906 13.167969 -9.554688 13.472656 -10.535156 L 13.964844 -13.105469 L 18.925781 -13.105469 L 19.355469 -10.535156 C 19.660156 -9.617188 19.78125 -8.941406 19.78125 -8.453125 C 19.78125 -7.535156 19.171875 -7.289062 17.699219 -7.289062 L 17.699219 0 L 34.054688 0 L 34.054688 -7.289062 C 31.847656 -7.289062 31.480469 -7.65625 30.625 -10.105469 L 23.824219 -38.585938 Z M 16.597656 -26.824219 C 16.84375 -26.089844 17.027344 -25.171875 17.210938 -24.132812 L 17.945312 -19.414062 L 15.1875 -19.414062 Z M 16.597656 -26.824219 "/></g></g></g><g fill="#fffff5" fill-opacity="1"><g transform="translate(272.164184, 307.789902)"><g><path d="M 32.339844 -25.355469 C 32.339844 -34.542969 28.480469 -38.585938 19.171875 -38.585938 L 1.960938 -38.585938 L 1.960938 -31.296875 C 3.675781 -31.296875 4.042969 -30.992188 4.042969 -29.277344 L 4.042969 -9.308594 C 4.042969 -7.59375 3.675781 -7.289062 1.960938 -7.289062 L 1.960938 0 L 16.78125 0 L 16.78125 -7.289062 C 15.066406 -7.289062 14.699219 -7.59375 14.699219 -9.308594 L 14.699219 -12.433594 L 19.171875 -12.433594 C 28.480469 -12.433594 32.339844 -16.167969 32.339844 -25.355469 Z M 14.699219 -29.886719 L 17.882812 -29.886719 C 20.394531 -29.886719 21.558594 -28.664062 21.558594 -25.480469 C 21.558594 -22.292969 20.394531 -21.128906 17.882812 -21.128906 L 14.699219 -21.128906 Z M 14.699219 -29.886719 "/></g></g></g><g fill="#fffff5" fill-opacity="1"><g transform="translate(309.707755, 307.789902)"><g><path d="M 32.339844 -38.585938 L 1.960938 -38.585938 L 1.960938 -31.296875 C 3.675781 -31.296875 4.042969 -30.992188 4.042969 -29.277344 L 4.042969 -9.308594 C 4.042969 -7.59375 3.675781 -7.289062 1.960938 -7.289062 L 1.960938 0 L 32.339844 0 L 32.339844 -13.839844 L 24.988281 -13.839844 C 24.988281 -8.878906 24.4375 -8.328125 19.476562 -8.328125 L 14.761719 -8.328125 L 14.761719 -15.128906 L 22.660156 -15.128906 L 22.660156 -23.457031 L 14.761719 -23.457031 L 14.761719 -30.257812 L 19.476562 -30.257812 C 24.4375 -30.257812 24.988281 -29.703125 24.988281 -24.742188 L 32.339844 -24.742188 Z M 32.339844 -38.585938 "/></g></g></g></svg>